<svg width="360" height="242" viewBox="0 0 360 242" fill="none" xmlns="http://www.w3.org/2000/svg">
<path d="M214.76 140.882H143.38C138.12 140.882 135.49 138.252 135.49 132.992V110.827C135.49 105.317 138.12 102.562 143.38 102.562H214.76C220.019 102.562 222.649 105.317 222.649 110.827V132.992C222.649 138.252 220.019 140.882 214.76 140.882Z" fill="url(#paint0_linear_1607_1142)"/>
<path d="M214.76 140.882H143.38C138.12 140.882 135.49 138.252 135.49 132.992V110.827C135.49 105.317 138.12 102.562 143.38 102.562H214.76C220.019 102.562 222.649 105.317 222.649 110.827V132.992C222.649 138.252 220.019 140.882 214.76 140.882Z" fill="black" fill-opacity="0.2"/>
<path d="M225.748 241.565H196.821C190.81 241.565 188.806 238.936 190.81 233.676C194.841 223.346 200.456 208.707 207.656 189.759C212.682 176.533 218.479 161.207 225.048 143.783C227.778 136.541 230.641 128.937 233.638 120.971C236.633 113.007 239.496 105.403 242.225 98.1585C247.064 85.3128 251.484 73.5979 255.486 63.0139C264.7 38.6436 271.693 20.2688 276.466 7.88937C278.72 2.62979 282.101 0 286.609 0H315.537C321.548 0 323.552 2.62979 321.548 7.88937L235.892 233.676C233.888 238.936 230.507 241.565 225.748 241.565Z" fill="url(#paint1_linear_1607_1142)"/>
<path d="M225.748 241.565H196.821C190.81 241.565 188.806 238.936 190.81 233.676C194.841 223.346 200.456 208.707 207.656 189.759C212.682 176.533 218.479 161.207 225.048 143.783C227.778 136.541 230.641 128.937 233.638 120.971C236.633 113.007 239.496 105.403 242.225 98.1585C247.064 85.3128 251.484 73.5979 255.486 63.0139C264.7 38.6436 271.693 20.2688 276.466 7.88937C278.72 2.62979 282.101 0 286.609 0H315.537C321.548 0 323.552 2.62979 321.548 7.88937L235.892 233.676C233.888 238.936 230.507 241.565 225.748 241.565Z" fill="black" fill-opacity="0.2"/>
<path d="M73.1265 241.565H44.1987C38.1878 241.565 36.1841 238.936 38.1878 233.676C46.2024 213.139 60.4784 175.57 81.0158 120.971C101.553 66.371 115.829 28.6773 123.844 7.88937C126.098 2.62979 129.479 0 133.987 0H162.915C168.926 0 170.93 2.62979 168.926 7.88937L154.013 47.2009L136.55 93.2308L118.964 139.586L105.615 174.775L83.27 233.676C81.2663 238.936 77.8851 241.565 73.1265 241.565Z" fill="url(#paint2_linear_1607_1142)"/>
<path d="M73.1265 241.565H44.1987C38.1878 241.565 36.1841 238.936 38.1878 233.676C46.2024 213.139 60.4784 175.57 81.0158 120.971C101.553 66.371 115.829 28.6773 123.844 7.88937C126.098 2.62979 129.479 0 133.987 0H162.915C168.926 0 170.93 2.62979 168.926 7.88937L154.013 47.2009L136.55 93.2308L118.964 139.586L105.615 174.775L83.27 233.676C81.2663 238.936 77.8851 241.565 73.1265 241.565Z" fill="black" fill-opacity="0.2"/>
<path fill-rule="evenodd" clip-rule="evenodd" d="M136.55 93.2308L154.013 47.2009C153.022 47.3229 151.901 47.6184 150.65 48.0876L10.1435 93.5455C3.38116 95.7996 0 100.809 0 108.573V128.86C0 136.624 3.38116 141.633 10.1435 143.887L105.615 174.775L118.964 139.586L39.4469 118.716L136.55 93.2308Z" fill="url(#paint3_linear_1607_1142)"/>
<path fill-rule="evenodd" clip-rule="evenodd" d="M136.55 93.2308L154.013 47.2009C153.022 47.3229 151.901 47.6184 150.65 48.0876L10.1435 93.5455C3.38116 95.7996 0 100.809 0 108.573V128.86C0 136.624 3.38116 141.633 10.1435 143.887L105.615 174.775L118.964 139.586L39.4469 118.716L136.55 93.2308Z" fill="black" fill-opacity="0.2"/>
<path fill-rule="evenodd" clip-rule="evenodd" d="M320.553 118.716L242.225 98.1585C247.064 85.3128 251.484 73.5979 255.486 63.0139L349.856 93.5455C356.619 95.7996 360 100.809 360 108.573V128.86C360 136.624 356.619 141.633 349.856 143.887L209.35 189.345C208.756 189.518 208.191 189.656 207.656 189.759C212.682 176.533 218.479 161.207 225.048 143.783L320.553 118.716Z" fill="url(#paint4_linear_1607_1142)"/>
<path fill-rule="evenodd" clip-rule="evenodd" d="M320.553 118.716L242.225 98.1585C247.064 85.3128 251.484 73.5979 255.486 63.0139L349.856 93.5455C356.619 95.7996 360 100.809 360 108.573V128.86C360 136.624 356.619 141.633 349.856 143.887L209.35 189.345C208.756 189.518 208.191 189.656 207.656 189.759C212.682 176.533 218.479 161.207 225.048 143.783L320.553 118.716Z" fill="black" fill-opacity="0.2"/>
<path d="M208.794 136.968H139.397C134.283 136.968 131.727 134.412 131.727 129.298V107.748C131.727 102.392 134.283 99.713 139.397 99.713H208.794C213.908 99.713 216.464 102.392 216.464 107.748V129.298C216.464 134.412 213.908 136.968 208.794 136.968Z" fill="url(#paint5_linear_1607_1142)"/>
<path d="M219.478 234.855H191.353C185.509 234.855 183.561 232.298 185.509 227.185C189.429 217.142 194.888 202.909 201.888 184.488C206.774 171.629 212.41 156.729 218.797 139.789C221.451 132.748 224.234 125.356 227.148 117.61C230.06 109.868 232.843 102.475 235.496 95.4318C240.201 82.9429 244.499 71.5535 248.389 61.2635C257.347 37.5702 264.146 19.7058 268.786 7.67022C270.978 2.55674 274.265 0 278.648 0H306.772C312.616 0 314.564 2.55674 312.616 7.67022L229.339 227.185C227.391 232.298 224.104 234.855 219.478 234.855Z" fill="url(#paint6_linear_1607_1142)"/>
<path d="M71.0952 234.855H42.971C37.127 234.855 35.179 232.298 37.127 227.185C44.919 207.218 58.7985 170.693 78.7654 117.61C98.7324 64.5273 112.612 27.8807 120.404 7.67022C122.595 2.55674 125.883 0 130.266 0H158.39C164.234 0 166.182 2.55674 164.234 7.67022L149.734 45.8898L132.757 90.641L115.66 135.709L102.681 169.92L80.9569 227.185C79.0089 232.298 75.7217 234.855 71.0952 234.855Z" fill="url(#paint7_linear_1607_1142)"/>
<path fill-rule="evenodd" clip-rule="evenodd" d="M132.757 90.641L149.734 45.8898C148.771 46.0083 147.681 46.2957 146.465 46.7519L9.86172 90.947C3.28724 93.1385 0 98.0085 0 105.557V125.28C0 132.829 3.28724 137.699 9.86172 139.89L102.681 169.92L115.66 135.709L38.3512 115.419L132.757 90.641Z" fill="url(#paint8_linear_1607_1142)"/>
<path fill-rule="evenodd" clip-rule="evenodd" d="M311.649 115.419L235.496 95.4318C240.201 82.9429 244.499 71.5535 248.389 61.2635L340.138 90.947C346.713 93.1385 350 98.0085 350 105.557V125.28C350 132.829 346.713 137.699 340.138 139.89L203.535 184.086C202.957 184.254 202.408 184.388 201.888 184.488C206.774 171.629 212.41 156.729 218.797 139.789L311.649 115.419Z" fill="url(#paint9_linear_1607_1142)"/>
<defs>
<linearGradient id="paint0_linear_1607_1142" x1="4.29161e-06" y1="120.337" x2="359.542" y2="120.337" gradientUnits="userSpaceOnUse">
<stop stop-color="#BABBF1"/>
<stop offset="1" stop-color="#85C1DC"/>
</linearGradient>
<linearGradient id="paint1_linear_1607_1142" x1="4.29161e-06" y1="120.337" x2="359.542" y2="120.337" gradientUnits="userSpaceOnUse">
<stop stop-color="#BABBF1"/>
<stop offset="1" stop-color="#85C1DC"/>
</linearGradient>
<linearGradient id="paint2_linear_1607_1142" x1="4.29161e-06" y1="120.337" x2="359.542" y2="120.337" gradientUnits="userSpaceOnUse">
<stop stop-color="#BABBF1"/>
<stop offset="1" stop-color="#85C1DC"/>
</linearGradient>
<linearGradient id="paint3_linear_1607_1142" x1="4.29161e-06" y1="120.337" x2="359.542" y2="120.337" gradientUnits="userSpaceOnUse">
<stop stop-color="#BABBF1"/>
<stop offset="1" stop-color="#85C1DC"/>
</linearGradient>
<linearGradient id="paint4_linear_1607_1142" x1="4.29161e-06" y1="120.337" x2="359.542" y2="120.337" gradientUnits="userSpaceOnUse">
<stop stop-color="#BABBF1"/>
<stop offset="1" stop-color="#85C1DC"/>
</linearGradient>
<linearGradient id="paint5_linear_1607_1142" x1="4.1724e-06" y1="116.994" x2="349.555" y2="116.994" gradientUnits="userSpaceOnUse">
<stop stop-color="#BABBF1"/>
<stop offset="1" stop-color="#85C1DC"/>
</linearGradient>
<linearGradient id="paint6_linear_1607_1142" x1="4.1724e-06" y1="116.994" x2="349.555" y2="116.994" gradientUnits="userSpaceOnUse">
<stop stop-color="#BABBF1"/>
<stop offset="1" stop-color="#85C1DC"/>
</linearGradient>
<linearGradient id="paint7_linear_1607_1142" x1="4.1724e-06" y1="116.994" x2="349.555" y2="116.994" gradientUnits="userSpaceOnUse">
<stop stop-color="#BABBF1"/>
<stop offset="1" stop-color="#85C1DC"/>
</linearGradient>
<linearGradient id="paint8_linear_1607_1142" x1="4.1724e-06" y1="116.994" x2="349.555" y2="116.994" gradientUnits="userSpaceOnUse">
<stop stop-color="#BABBF1"/>
<stop offset="1" stop-color="#85C1DC"/>
</linearGradient>
<linearGradient id="paint9_linear_1607_1142" x1="4.1724e-06" y1="116.994" x2="349.555" y2="116.994" gradientUnits="userSpaceOnUse">
<stop stop-color="#BABBF1"/>
<stop offset="1" stop-color="#85C1DC"/>
</linearGradient>
</defs>
</svg>
